<mxfile host="app.diagrams.net" modified="2024-05-29T02:56:23.162Z" agent="Mozilla/5.0 (Windows NT 10.0; Win64; x64) AppleWebKit/537.36 (KHTML, like Gecko) Chrome/123.0.0.0 Safari/537.36 OPR/109.0.0.0" etag="qX1JW5PknYtDZofYruIE" version="24.4.8" type="github">
  <diagram id="C5RBs43oDa-KdzZeNtuy" name="Page-1">
    <mxGraphModel dx="1180" dy="745" grid="1" gridSize="10" guides="1" tooltips="1" connect="1" arrows="1" fold="1" page="1" pageScale="1" pageWidth="827" pageHeight="1169" math="0" shadow="0">
      <root>
        <mxCell id="WIyWlLk6GJQsqaUBKTNV-0" />
        <mxCell id="WIyWlLk6GJQsqaUBKTNV-1" parent="WIyWlLk6GJQsqaUBKTNV-0" />
        <mxCell id="J9SM4DZvDzeFsLo5-2gH-7" style="edgeStyle=orthogonalEdgeStyle;rounded=0;orthogonalLoop=1;jettySize=auto;html=1;" edge="1" parent="WIyWlLk6GJQsqaUBKTNV-1" source="WIyWlLk6GJQsqaUBKTNV-3" target="J9SM4DZvDzeFsLo5-2gH-5">
          <mxGeometry relative="1" as="geometry" />
        </mxCell>
        <mxCell id="WIyWlLk6GJQsqaUBKTNV-3" value="Ask user for their name" style="rounded=1;whiteSpace=wrap;html=1;fontSize=12;glass=0;strokeWidth=1;shadow=0;" parent="WIyWlLk6GJQsqaUBKTNV-1" vertex="1">
          <mxGeometry x="430" y="140" width="120" height="40" as="geometry" />
        </mxCell>
        <mxCell id="J9SM4DZvDzeFsLo5-2gH-15" style="edgeStyle=orthogonalEdgeStyle;rounded=0;orthogonalLoop=1;jettySize=auto;html=1;" edge="1" parent="WIyWlLk6GJQsqaUBKTNV-1" source="J9SM4DZvDzeFsLo5-2gH-0" target="J9SM4DZvDzeFsLo5-2gH-14">
          <mxGeometry relative="1" as="geometry" />
        </mxCell>
        <mxCell id="J9SM4DZvDzeFsLo5-2gH-0" value="START" style="ellipse;whiteSpace=wrap;html=1;" vertex="1" parent="WIyWlLk6GJQsqaUBKTNV-1">
          <mxGeometry x="243" y="20" width="120" height="80" as="geometry" />
        </mxCell>
        <mxCell id="J9SM4DZvDzeFsLo5-2gH-10" value="" style="edgeStyle=orthogonalEdgeStyle;rounded=0;orthogonalLoop=1;jettySize=auto;html=1;" edge="1" parent="WIyWlLk6GJQsqaUBKTNV-1" source="J9SM4DZvDzeFsLo5-2gH-3" target="J9SM4DZvDzeFsLo5-2gH-9">
          <mxGeometry relative="1" as="geometry" />
        </mxCell>
        <mxCell id="J9SM4DZvDzeFsLo5-2gH-3" value="Ask user for their bet" style="rounded=1;whiteSpace=wrap;html=1;fontSize=12;glass=0;strokeWidth=1;shadow=0;" vertex="1" parent="WIyWlLk6GJQsqaUBKTNV-1">
          <mxGeometry x="243" y="220" width="120" height="40" as="geometry" />
        </mxCell>
        <mxCell id="J9SM4DZvDzeFsLo5-2gH-8" style="edgeStyle=orthogonalEdgeStyle;rounded=0;orthogonalLoop=1;jettySize=auto;html=1;" edge="1" parent="WIyWlLk6GJQsqaUBKTNV-1" source="J9SM4DZvDzeFsLo5-2gH-5" target="J9SM4DZvDzeFsLo5-2gH-3">
          <mxGeometry relative="1" as="geometry" />
        </mxCell>
        <mxCell id="J9SM4DZvDzeFsLo5-2gH-5" value="Save the name in a name variable" style="rounded=1;whiteSpace=wrap;html=1;fontSize=12;glass=0;strokeWidth=1;shadow=0;" vertex="1" parent="WIyWlLk6GJQsqaUBKTNV-1">
          <mxGeometry x="430" y="220" width="120" height="40" as="geometry" />
        </mxCell>
        <mxCell id="J9SM4DZvDzeFsLo5-2gH-18" value="" style="edgeStyle=orthogonalEdgeStyle;rounded=0;orthogonalLoop=1;jettySize=auto;html=1;" edge="1" parent="WIyWlLk6GJQsqaUBKTNV-1" source="J9SM4DZvDzeFsLo5-2gH-9" target="J9SM4DZvDzeFsLo5-2gH-17">
          <mxGeometry relative="1" as="geometry" />
        </mxCell>
        <mxCell id="J9SM4DZvDzeFsLo5-2gH-9" value="Save the bet in a bet variable" style="rounded=1;whiteSpace=wrap;html=1;fontSize=12;glass=0;strokeWidth=1;shadow=0;" vertex="1" parent="WIyWlLk6GJQsqaUBKTNV-1">
          <mxGeometry x="243" y="300" width="120" height="40" as="geometry" />
        </mxCell>
        <mxCell id="J9SM4DZvDzeFsLo5-2gH-16" style="edgeStyle=orthogonalEdgeStyle;rounded=0;orthogonalLoop=1;jettySize=auto;html=1;" edge="1" parent="WIyWlLk6GJQsqaUBKTNV-1" source="J9SM4DZvDzeFsLo5-2gH-14" target="WIyWlLk6GJQsqaUBKTNV-3">
          <mxGeometry relative="1" as="geometry" />
        </mxCell>
        <mxCell id="J9SM4DZvDzeFsLo5-2gH-14" value="create an empty dictionary" style="rounded=1;whiteSpace=wrap;html=1;" vertex="1" parent="WIyWlLk6GJQsqaUBKTNV-1">
          <mxGeometry x="230" y="140" width="146" height="40" as="geometry" />
        </mxCell>
        <mxCell id="J9SM4DZvDzeFsLo5-2gH-20" value="" style="edgeStyle=orthogonalEdgeStyle;rounded=0;orthogonalLoop=1;jettySize=auto;html=1;" edge="1" parent="WIyWlLk6GJQsqaUBKTNV-1" source="J9SM4DZvDzeFsLo5-2gH-17" target="J9SM4DZvDzeFsLo5-2gH-19">
          <mxGeometry relative="1" as="geometry" />
        </mxCell>
        <mxCell id="J9SM4DZvDzeFsLo5-2gH-17" value="Add name as the key in the list and bet as the value&lt;div&gt;&lt;br&gt;&lt;/div&gt;" style="rounded=1;whiteSpace=wrap;html=1;fontSize=12;glass=0;strokeWidth=1;shadow=0;" vertex="1" parent="WIyWlLk6GJQsqaUBKTNV-1">
          <mxGeometry x="397" y="300" width="186" height="40" as="geometry" />
        </mxCell>
        <mxCell id="J9SM4DZvDzeFsLo5-2gH-21" style="edgeStyle=orthogonalEdgeStyle;rounded=0;orthogonalLoop=1;jettySize=auto;html=1;" edge="1" parent="WIyWlLk6GJQsqaUBKTNV-1" source="J9SM4DZvDzeFsLo5-2gH-19">
          <mxGeometry relative="1" as="geometry">
            <mxPoint x="550" y="160" as="targetPoint" />
            <Array as="points">
              <mxPoint x="600" y="440" />
              <mxPoint x="600" y="160" />
            </Array>
          </mxGeometry>
        </mxCell>
        <mxCell id="J9SM4DZvDzeFsLo5-2gH-24" value="" style="edgeStyle=orthogonalEdgeStyle;rounded=0;orthogonalLoop=1;jettySize=auto;html=1;" edge="1" parent="WIyWlLk6GJQsqaUBKTNV-1" source="J9SM4DZvDzeFsLo5-2gH-19" target="J9SM4DZvDzeFsLo5-2gH-23">
          <mxGeometry relative="1" as="geometry" />
        </mxCell>
        <mxCell id="J9SM4DZvDzeFsLo5-2gH-19" value="Is there&#39;s more bets ?" style="rhombus;whiteSpace=wrap;html=1;rounded=1;glass=0;strokeWidth=1;shadow=0;" vertex="1" parent="WIyWlLk6GJQsqaUBKTNV-1">
          <mxGeometry x="437" y="400" width="106" height="90" as="geometry" />
        </mxCell>
        <mxCell id="J9SM4DZvDzeFsLo5-2gH-22" value="Yes" style="text;html=1;align=center;verticalAlign=middle;resizable=0;points=[];autosize=1;strokeColor=none;fillColor=none;" vertex="1" parent="WIyWlLk6GJQsqaUBKTNV-1">
          <mxGeometry x="550" y="410" width="40" height="30" as="geometry" />
        </mxCell>
        <mxCell id="J9SM4DZvDzeFsLo5-2gH-27" value="" style="edgeStyle=orthogonalEdgeStyle;rounded=0;orthogonalLoop=1;jettySize=auto;html=1;" edge="1" parent="WIyWlLk6GJQsqaUBKTNV-1" source="J9SM4DZvDzeFsLo5-2gH-23" target="J9SM4DZvDzeFsLo5-2gH-26">
          <mxGeometry relative="1" as="geometry" />
        </mxCell>
        <mxCell id="J9SM4DZvDzeFsLo5-2gH-23" value="go throw all the data in the dictionary with a for loop" style="whiteSpace=wrap;html=1;rounded=1;glass=0;strokeWidth=1;shadow=0;" vertex="1" parent="WIyWlLk6GJQsqaUBKTNV-1">
          <mxGeometry x="210" y="425" width="153" height="40" as="geometry" />
        </mxCell>
        <mxCell id="J9SM4DZvDzeFsLo5-2gH-25" value="No" style="text;html=1;align=center;verticalAlign=middle;resizable=0;points=[];autosize=1;strokeColor=none;fillColor=none;" vertex="1" parent="WIyWlLk6GJQsqaUBKTNV-1">
          <mxGeometry x="390" y="410" width="40" height="30" as="geometry" />
        </mxCell>
        <mxCell id="J9SM4DZvDzeFsLo5-2gH-30" value="" style="edgeStyle=orthogonalEdgeStyle;rounded=0;orthogonalLoop=1;jettySize=auto;html=1;" edge="1" parent="WIyWlLk6GJQsqaUBKTNV-1" source="J9SM4DZvDzeFsLo5-2gH-26" target="J9SM4DZvDzeFsLo5-2gH-29">
          <mxGeometry relative="1" as="geometry" />
        </mxCell>
        <mxCell id="J9SM4DZvDzeFsLo5-2gH-26" value="check which user has the highest bet" style="whiteSpace=wrap;html=1;rounded=1;glass=0;strokeWidth=1;shadow=0;" vertex="1" parent="WIyWlLk6GJQsqaUBKTNV-1">
          <mxGeometry x="210" y="520" width="150" height="40" as="geometry" />
        </mxCell>
        <mxCell id="J9SM4DZvDzeFsLo5-2gH-32" value="" style="edgeStyle=orthogonalEdgeStyle;rounded=0;orthogonalLoop=1;jettySize=auto;html=1;" edge="1" parent="WIyWlLk6GJQsqaUBKTNV-1" source="J9SM4DZvDzeFsLo5-2gH-29" target="J9SM4DZvDzeFsLo5-2gH-31">
          <mxGeometry relative="1" as="geometry" />
        </mxCell>
        <mxCell id="J9SM4DZvDzeFsLo5-2gH-29" value="Print the name of the winner" style="whiteSpace=wrap;html=1;rounded=1;glass=0;strokeWidth=1;shadow=0;" vertex="1" parent="WIyWlLk6GJQsqaUBKTNV-1">
          <mxGeometry x="414" y="520" width="150" height="40" as="geometry" />
        </mxCell>
        <mxCell id="J9SM4DZvDzeFsLo5-2gH-31" value="END" style="ellipse;whiteSpace=wrap;html=1;rounded=1;glass=0;strokeWidth=1;shadow=0;" vertex="1" parent="WIyWlLk6GJQsqaUBKTNV-1">
          <mxGeometry x="429.5" y="620" width="121" height="80" as="geometry" />
        </mxCell>
      </root>
    </mxGraphModel>
  </diagram>
</mxfile>
